<?xml version="1.0" encoding="utf-8"?>
<!-- Generator: Adobe Illustrator 24.1.2, SVG Export Plug-In . SVG Version: 6.00 Build 0)  -->
<svg version="1.1" id="Layer_1" xmlns="http://www.w3.org/2000/svg" xmlns:xlink="http://www.w3.org/1999/xlink" x="0px" y="0px"
	 viewBox="0 0 65 65" style="enable-background:new 0 0 65 65;" xml:space="preserve">
<style type="text/css">
	.st0{display:none;}
	.st1{display:inline;}
	.st2{fill:#FFFFFF;}
	.st3{fill:#F8584B;}
</style>
<g id="Layer_2_1_" class="st0">
	<g class="st1">
		<g>
			<g>
				<path class="st2" d="M28.3,46c-2,0-3.5,1.6-3.5,3.5s1.6,3.5,3.5,3.5s3.5-1.6,3.5-3.5S30.2,46,28.3,46z M28.3,51.2
					c-0.9,0-1.6-0.7-1.6-1.6c0-0.9,0.7-1.6,1.6-1.6s1.6,0.7,1.6,1.6C29.8,50.5,29.1,51.2,28.3,51.2z"/>
			</g>
		</g>
		<g>
			<g>
				<path class="st2" d="M40.7,46c-2,0-3.5,1.6-3.5,3.5s1.6,3.5,3.5,3.5s3.5-1.6,3.5-3.5S42.6,46,40.7,46z M40.7,51.2
					c-0.9,0-1.6-0.7-1.6-1.6c0-0.9,0.7-1.6,1.6-1.6c0.9,0,1.6,0.7,1.6,1.6C42.2,50.5,41.5,51.2,40.7,51.2z"/>
			</g>
		</g>
		<g>
			<g>
				<path class="st2" d="M41.5,27.4H27.4c-0.5,0-1,0.4-1,1s0.4,1,1,1h14.2c0.5,0,1-0.4,1-1C42.5,27.8,42.1,27.4,41.5,27.4z"/>
			</g>
		</g>
		<g>
			<g>
				<path class="st2" d="M40.8,32.5H28.1c-0.5,0-1,0.4-1,1s0.4,1,1,1h12.6c0.5,0,1-0.4,1-1C41.8,33,41.3,32.5,40.8,32.5z"/>
			</g>
		</g>
		<g>
			<g>
				<path class="st2" d="M51.2,23c-0.4-0.5-0.9-0.7-1.5-0.7H18.9l-0.6-3c-0.1-0.6-0.6-1.2-1.1-1.4L12.9,16c-0.5-0.2-1.1,0-1.3,0.5
					s0,1.1,0.5,1.3l4.3,1.9l4.8,23.2c0.2,0.9,1,1.6,1.9,1.6h23.7c0.5,0,1-0.4,1-1c0-0.5-0.4-1-1-1H23l-0.6-2.8h24.5
					c0.9,0,1.7-0.7,1.9-1.6l2.8-13.4C51.7,24.1,51.6,23.5,51.2,23z M46.9,37.7H22l-2.8-13.4h30.4L46.9,37.7z"/>
			</g>
		</g>
	</g>
</g>
<g id="Layer_3" class="st0">
	<g class="st1">
		<path class="st2" d="M47.2,10.1h-25c-3.2,0-5.8,2.6-5.8,5.8v32.7c0,3.5,2.8,6.3,6.3,6.3h24.5c0.8,0,1.4-0.6,1.4-1.4
			s-0.6-1.4-1.4-1.4H22.7c-1.9,0-3.5-1.6-3.5-3.5s1.6-3.5,3.5-3.5h24.5c0.8,0,1.4-0.6,1.4-1.4V11.5C48.6,10.8,47.9,10.1,47.2,10.1z
			 M45.8,42.3H25.5V12.9h20.3V42.3z M19.2,43.3V15.9c0-1.6,1.3-3,3-3h0.5v29.3C21.4,42.3,20.2,42.7,19.2,43.3z"/>
		<path class="st2" d="M47.2,47.2H22.7c-0.8,0-1.4,0.6-1.4,1.4c0,0.8,0.6,1.4,1.4,1.4h24.5c0.8,0,1.4-0.6,1.4-1.4
			C48.6,47.8,47.9,47.2,47.2,47.2z"/>
	</g>
</g>
<rect class="st3" width="65" height="65"/>
<g>
	<path class="st2" d="M48.9,7.5H21c-3.6,0-6.4,2.9-6.4,6.4v36.5c0,3.9,3.2,7,7,7h27.3c0.9,0,1.6-0.7,1.6-1.6s-0.7-1.6-1.6-1.6H21.6
		c-2.2,0-3.9-1.8-3.9-3.9c0-2.2,1.8-3.9,3.9-3.9h27.3c0.9,0,1.6-0.7,1.6-1.6V9.1C50.5,8.2,49.8,7.5,48.9,7.5z M47.3,43.4H24.7V10.6
		h22.7V43.4z M17.7,44.6V13.9c0-1.8,1.5-3.3,3.3-3.3h0.6v32.8C20.1,43.4,18.8,43.9,17.7,44.6z"/>
	<path class="st2" d="M48.9,48.9H21.6c-0.9,0-1.6,0.7-1.6,1.6s0.7,1.6,1.6,1.6h27.3c0.9,0,1.6-0.7,1.6-1.6S49.8,48.9,48.9,48.9z"/>
</g>
<g>
	<g>
		<g>
			<path class="st2" d="M93.7,51.1c-2.6,0-4.8,2.1-4.8,4.8s2.1,4.8,4.8,4.8s4.8-2.1,4.8-4.8C98.5,53.3,96.3,51.1,93.7,51.1z
				 M93.7,58c-1.2,0-2.1-0.9-2.1-2.1c0-1.2,0.9-2.1,2.1-2.1c1.2,0,2.1,0.9,2.1,2.1C95.8,57,94.9,58,93.7,58z"/>
		</g>
	</g>
	<g>
		<g>
			<path class="st2" d="M110.4,51.1c-2.6,0-4.8,2.1-4.8,4.8s2.1,4.8,4.8,4.8s4.8-2.1,4.8-4.8C115.1,53.3,113,51.1,110.4,51.1z
				 M110.4,58c-1.2,0-2.1-0.9-2.1-2.1c0-1.2,0.9-2.1,2.1-2.1c1.2,0,2.1,0.9,2.1,2.1C112.5,57,111.5,58,110.4,58z"/>
		</g>
	</g>
	<g>
		<g>
			<path class="st2" d="M111.6,26.1h-19c-0.7,0-1.3,0.6-1.3,1.3c0,0.7,0.6,1.3,1.3,1.3h19c0.7,0,1.3-0.6,1.3-1.3
				C112.9,26.7,112.3,26.1,111.6,26.1z"/>
		</g>
	</g>
	<g>
		<g>
			<path class="st2" d="M110.5,33H93.6c-0.7,0-1.3,0.6-1.3,1.3c0,0.7,0.6,1.3,1.3,1.3h16.9c0.7,0,1.3-0.6,1.3-1.3
				C111.8,33.6,111.3,33,110.5,33z"/>
		</g>
	</g>
	<g>
		<g>
			<path class="st2" d="M124.5,20.2c-0.5-0.6-1.3-1-2.1-1H81.1l-0.8-4.1c-0.2-0.8-0.8-1.6-1.5-1.9l-5.8-2.5c-0.7-0.3-1.5,0-1.7,0.7
				c-0.3,0.7,0,1.5,0.7,1.7l5.8,2.5l6.4,31.2c0.3,1.2,1.3,2.1,2.6,2.1h31.8c0.7,0,1.3-0.6,1.3-1.3s-0.6-1.3-1.3-1.3H86.7l-0.8-3.8
				h32.8c1.3,0,2.3-0.9,2.6-2.1l3.7-18C125.2,21.6,125,20.8,124.5,20.2z M118.7,39.9H85.4l-3.7-18l40.8,0L118.7,39.9z"/>
		</g>
	</g>
</g>
</svg>
